999
dxflib 2.0.4.8
  0
SECTION
  2
HEADER
  9
$ACADVER
  1
AC1015
  9
$HANDSEED
  5
FFFF
  9
$DIMASZ
 40
2.5
  9
$GRIDUNIT
 10
0.0
 20
0.0
  9
$DIMADEC
 70
2
  9
$DIMGAP
 40
0.625
  9
$SPLINESEGS
 70
8
  9
$AUPREC
 70
2
  9
$LUNITS
 70
2
  9
$DIMEXO
 40
0.625
  9
$INSUNITS
 70
4
  9
$DIMLUNIT
 70
2
  9
$DIMTXT
 40
2.5
  9
$GRIDMODE
 70
1
  9
$LUPREC
 70
4
  9
$PSVPSCALE
 40
0.75
  9
$DIMSTYLE
  2
Standard
  9
$PLIMMAX
 10
210.0
 20
297.0
  9
$PLIMMIN
 10
0.0
 20
0.0
  9
$PINSBASE
 10
26.2499999999999858
 20
230.7174657534248183
 30
0.0
  9
$DIMEXE
 40
1.25
  9
$DIMAUNIT
 70
0
  9
$AUNITS
 70
0
  0
ENDSEC
  0
SECTION
  2
TABLES
  0
TABLE
  2
VPORT
  5
8
100
AcDbSymbolTable
 70
1
  0
VPORT
  5
30
100
AcDbSymbolTableRecord
100
AcDbViewportTableRecord
  2
*Active
 70
0
 10
0.0
 20
0.0
 11
1.0
 21
1.0
 12
286.3055555555554861
 22
148.5
 13
0.0
 23
0.0
 14
10.0
 24
10.0
 15
10.0
 25
10.0
 16
0.0
 26
0.0
 36
1.0
 17
0.0
 27
0.0
 37
0.0
 40
297.0
 41
1.92798353909465
 42
50.0
 43
0.0
 44
0.0
 50
0.0
 51
0.0
 71
0
 72
100
 73
1
 74
3
 75
1
 76
1
 77
0
 78
0
281
0
 65
1
110
0.0
120
0.0
130
0.0
111
1.0
121
0.0
131
0.0
112
0.0
122
1.0
132
0.0
 79
0
146
0.0
  0
ENDTAB
  0
TABLE
  2
LTYPE
  5
5
100
AcDbSymbolTable
 70
21
  0
LTYPE
  5
14
100
AcDbSymbolTableRecord
100
AcDbLinetypeTableRecord
  2
ByBlock
 70
0
  3

 72
65
 73
0
 40
0.0
  0
LTYPE
  5
15
100
AcDbSymbolTableRecord
100
AcDbLinetypeTableRecord
  2
ByLayer
 70
0
  3

 72
65
 73
0
 40
0.0
  0
LTYPE
  5
16
100
AcDbSymbolTableRecord
100
AcDbLinetypeTableRecord
  2
CONTINUOUS
 70
0
  3
Solid line
 72
65
 73
0
 40
0.0
  0
LTYPE
  5
31
100
AcDbSymbolTableRecord
100
AcDbLinetypeTableRecord
  2
DOT
 70
0
  3
Dot . . . . . . . . . . . . . . . . . . . . . .
 72
65
 73
2
 40
6.3499999999999996
 49
0.0
 74
0
 49
-6.3499999999999996
 74
0
  0
LTYPE
  5
32
100
AcDbSymbolTableRecord
100
AcDbLinetypeTableRecord
  2
DOT2
 70
0
  3
Dot (.5x) .....................................
 72
65
 73
2
 40
3.1749999999999998
 49
0.0
 74
0
 49
-3.1749999999999998
 74
0
  0
LTYPE
  5
33
100
AcDbSymbolTableRecord
100
AcDbLinetypeTableRecord
  2
DOTX2
 70
0
  3
Dot (2x) .  .  .  .  .  .  .  .  .  .  .  .  .
 72
65
 73
2
 40
12.6999999999999993
 49
0.0
 74
0
 49
-12.6999999999999993
 74
0
  0
LTYPE
  5
34
100
AcDbSymbolTableRecord
100
AcDbLinetypeTableRecord
  2
DASHED
 70
0
  3
Dashed __ __ __ __ __ __ __ __ __ __ __ __ __ _
 72
65
 73
2
 40
19.0500000000000007
 49
12.6999999999999993
 74
0
 49
-6.3499999999999996
 74
0
  0
LTYPE
  5
35
100
AcDbSymbolTableRecord
100
AcDbLinetypeTableRecord
  2
DASHED2
 70
0
  3
Dashed (.5x) _ _ _ _ _ _ _ _ _ _ _ _ _ _ _ _ _
 72
65
 73
2
 40
9.5250000000000004
 49
6.3499999999999996
 74
0
 49
-3.1749999999999998
 74
0
  0
LTYPE
  5
36
100
AcDbSymbolTableRecord
100
AcDbLinetypeTableRecord
  2
DASHEDX2
 70
0
  3
Dashed (2x) ____  ____  ____  ____  ____  ___
 72
65
 73
2
 40
38.1000000000000014
 49
25.3999999999999986
 74
0
 49
-12.6999999999999993
 74
0
  0
LTYPE
  5
37
100
AcDbSymbolTableRecord
100
AcDbLinetypeTableRecord
  2
DASHDOT
 70
0
  3
Dash dot __ . __ . __ . __ . __ . __ . __ . __
 72
65
 73
4
 40
25.3999999999999986
 49
12.6999999999999993
 74
0
 49
-6.3499999999999996
 74
0
 49
0.0
 74
0
 49
-6.3499999999999996
 74
0
  0
LTYPE
  5
38
100
AcDbSymbolTableRecord
100
AcDbLinetypeTableRecord
  2
DASHDOT2
 70
0
  3
Dash dot (.5x) _._._._._._._._._._._._._._._.
 72
65
 73
4
 40
12.6999999999999993
 49
6.3499999999999996
 74
0
 49
-3.1749999999999998
 74
0
 49
0.0
 74
0
 49
-3.1749999999999998
 74
0
  0
LTYPE
  5
39
100
AcDbSymbolTableRecord
100
AcDbLinetypeTableRecord
  2
DASHDOTX2
 70
0
  3
Dash dot (2x) ____  .  ____  .  ____  .  ___
 72
65
 73
4
 40
50.7999999999999972
 49
25.3999999999999986
 74
0
 49
-12.6999999999999993
 74
0
 49
0.0
 74
0
 49
-12.6999999999999993
 74
0
  0
LTYPE
  5
3A
100
AcDbSymbolTableRecord
100
AcDbLinetypeTableRecord
  2
DIVIDE
 70
0
  3
Divide ____ . . ____ . . ____ . . ____ . . ____
 72
65
 73
6
 40
31.75
 49
12.6999999999999993
 74
0
 49
-6.3499999999999996
 74
0
 49
0.0
 74
0
 49
-6.3499999999999996
 74
0
 49
0.0
 74
0
 49
-6.3499999999999996
 74
0
  0
LTYPE
  5
3B
100
AcDbSymbolTableRecord
100
AcDbLinetypeTableRecord
  2
DIVIDE2
 70
0
  3
Divide (.5x) __..__..__..__..__..__..__..__.._
 72
65
 73
6
 40
15.875
 49
6.3499999999999996
 74
0
 49
-3.1749999999999998
 74
0
 49
0.0
 74
0
 49
-3.1749999999999998
 74
0
 49
0.0
 74
0
 49
-3.1749999999999998
 74
0
  0
LTYPE
  5
3C
100
AcDbSymbolTableRecord
100
AcDbLinetypeTableRecord
  2
DIVIDEX2
 70
0
  3
Divide (2x) ________  .  .  ________  .  .  _
 72
65
 73
6
 40
63.5
 49
25.3999999999999986
 74
0
 49
-12.6999999999999993
 74
0
 49
0.0
 74
0
 49
-12.6999999999999993
 74
0
 49
0.0
 74
0
 49
-12.6999999999999993
 74
0
  0
LTYPE
  5
3D
100
AcDbSymbolTableRecord
100
AcDbLinetypeTableRecord
  2
CENTER
 70
0
  3
Center ____ _ ____ _ ____ _ ____ _ ____ _ ____
 72
65
 73
4
 40
50.7999999999999972
 49
31.75
 74
0
 49
-6.3499999999999996
 74
0
 49
6.3499999999999996
 74
0
 49
-6.3499999999999996
 74
0
  0
LTYPE
  5
3E
100
AcDbSymbolTableRecord
100
AcDbLinetypeTableRecord
  2
CENTER2
 70
0
  3
Center (.5x) ___ _ ___ _ ___ _ ___ _ ___ _ ___
 72
65
 73
4
 40
28.5749999999999993
 49
19.0500000000000007
 74
0
 49
-3.1749999999999998
 74
0
 49
3.1749999999999998
 74
0
 49
-3.1749999999999998
 74
0
  0
LTYPE
  5
3F
100
AcDbSymbolTableRecord
100
AcDbLinetypeTableRecord
  2
CENTERX2
 70
0
  3
Center (2x) ________  __  ________  __  _____
 72
65
 73
4
 40
101.5999999999999943
 49
63.5
 74
0
 49
-12.6999999999999993
 74
0
 49
12.6999999999999993
 74
0
 49
-12.6999999999999993
 74
0
  0
LTYPE
  5
40
100
AcDbSymbolTableRecord
100
AcDbLinetypeTableRecord
  2
BORDER
 70
0
  3
Border __ __ . __ __ . __ __ . __ __ . __ __ .
 72
65
 73
6
 40
44.4500000000000028
 49
12.6999999999999993
 74
0
 49
-6.3499999999999996
 74
0
 49
12.6999999999999993
 74
0
 49
-6.3499999999999996
 74
0
 49
0.0
 74
0
 49
-6.3499999999999996
 74
0
  0
LTYPE
  5
41
100
AcDbSymbolTableRecord
100
AcDbLinetypeTableRecord
  2
BORDER2
 70
0
  3
Border (.5x) __.__.__.__.__.__.__.__.__.__.__.
 72
65
 73
6
 40
22.2250000000000014
 49
6.3499999999999996
 74
0
 49
-3.1749999999999998
 74
0
 49
6.3499999999999996
 74
0
 49
-3.1749999999999998
 74
0
 49
0.0
 74
0
 49
-3.1749999999999998
 74
0
  0
LTYPE
  5
42
100
AcDbSymbolTableRecord
100
AcDbLinetypeTableRecord
  2
BORDERX2
 70
0
  3
Border (2x) ____  ____  .  ____  ____  .  ___
 72
65
 73
6
 40
88.9000000000000057
 49
25.3999999999999986
 74
0
 49
-12.6999999999999993
 74
0
 49
25.3999999999999986
 74
0
 49
-12.6999999999999993
 74
0
 49
0.0
 74
0
 49
-12.6999999999999993
 74
0
  0
ENDTAB
  0
TABLE
  2
LAYER
  5
2
100
AcDbSymbolTable
 70
1
  0
LAYER
  5
10
100
AcDbSymbolTableRecord
100
AcDbLayerTableRecord
  2
0
 70
0
 62
7
  6
CONTINUOUS
370
0
390
F
  0
ENDTAB
  0
TABLE
  2
STYLE
  5
3
100
AcDbSymbolTable
 70
1
  0
STYLE
  5
11
100
AcDbSymbolTableRecord
100
AcDbTextStyleTableRecord
  2
Standard
 70
0
 40
0.0
 41
0.75
 50
0.0
 71
0
 42
2.5
  3
txt
  4

  0
ENDTAB
  0
TABLE
  2
VIEW
  5
6
100
AcDbSymbolTable
 70
0
  0
ENDTAB
  0
TABLE
  2
UCS
  5
7
100
AcDbSymbolTable
 70
0
  0
ENDTAB
  0
TABLE
  2
APPID
  5
9
100
AcDbSymbolTable
 70
1
  0
APPID
  5
12
100
AcDbSymbolTableRecord
100
AcDbRegAppTableRecord
  2
ACAD
 70
0
  0
ENDTAB
  0
TABLE
  2
DIMSTYLE
  5
A
100
AcDbSymbolTable
 70
1
100
AcDbDimStyleTable
 71
0
  0
DIMSTYLE
105
27
100
AcDbSymbolTableRecord
100
AcDbDimStyleTableRecord
  2
Standard
 41
2.5
 42
0.625
 43
3.75
 44
1.25
 70
0
 73
0
 74
0
 77
1
 78
8
140
2.5
141
2.5
143
0.03937007874016
147
0.625
171
3
172
1
271
2
272
2
274
3
278
44
283
0
284
8
340
11
  0
ENDTAB
  0
TABLE
  2
BLOCK_RECORD
  5
1
100
AcDbSymbolTable
 70
1
  0
BLOCK_RECORD
  5
1F
100
AcDbSymbolTableRecord
100
AcDbBlockTableRecord
  2
*Model_Space
340
22
  0
BLOCK_RECORD
  5
1B
100
AcDbSymbolTableRecord
100
AcDbBlockTableRecord
  2
*Paper_Space
340
1E
  0
BLOCK_RECORD
  5
23
100
AcDbSymbolTableRecord
100
AcDbBlockTableRecord
  2
*Paper_Space0
340
26
  0
ENDTAB
  0
ENDSEC
  0
SECTION
  2
BLOCKS
  0
BLOCK
  5
20
100
AcDbEntity
  8
0
100
AcDbBlockBegin
  2
*Model_Space
 70
0
 10
0.0
 20
0.0
 30
0.0
  3
*Model_Space
  1

  0
ENDBLK
  5
21
100
AcDbEntity
  8
0
100
AcDbBlockEnd
  0
BLOCK
  5
1C
100
AcDbEntity
 67
1
  8
0
100
AcDbBlockBegin
  2
*Paper_Space
 70
0
 10
0.0
 20
0.0
 30
0.0
  3
*Paper_Space
  1

  0
ENDBLK
  5
1D
100
AcDbEntity
 67
1
  8
0
100
AcDbBlockEnd
  0
BLOCK
  5
24
100
AcDbEntity
  8
0
100
AcDbBlockBegin
  2
*Paper_Space0
 70
0
 10
0.0
 20
0.0
 30
0.0
  3
*Paper_Space0
  1

  0
ENDBLK
  5
25
100
AcDbEntity
  8
0
100
AcDbBlockEnd
  0
ENDSEC
  0
SECTION
  2
ENTITIES
  0
LINE
  5
43
100
AcDbEntity
100
AcDbLine
  8
0
 62
256
370
-1
  6
ByLayer
 10
-0.0000000000000018
 20
-10.0
 30
0.0
 11
-0.0000000000000018
 21
-10.0
 31
0.0
  0
LINE
  5
44
100
AcDbEntity
100
AcDbLine
  8
0
 62
256
370
-1
  6
ByLayer
 10
-0.0000000000000018
 20
-10.0
 30
0.0
 11
-0.0000000000000018
 21
-10.0
 31
0.0
  0
LINE
  5
45
100
AcDbEntity
100
AcDbLine
  8
0
 62
256
370
-1
  6
ByLayer
 10
-0.0000000000000018
 20
-10.0
 30
0.0
 11
-0.0000000000000018
 21
-10.0
 31
0.0
  0
LINE
  5
46
100
AcDbEntity
100
AcDbLine
  8
0
 62
256
370
-1
  6
ByLayer
 10
-0.0000000000000018
 20
-10.0
 30
0.0
 11
-0.0000000000000018
 21
-10.0
 31
0.0
  0
LINE
  5
47
100
AcDbEntity
100
AcDbLine
  8
0
 62
256
370
-1
  6
ByLayer
 10
9.9999999999999947
 20
-30.0000000000000036
 30
0.0
 11
70.0
 21
-30.0000000000000142
 31
0.0
  0
LINE
  5
48
100
AcDbEntity
100
AcDbLine
  8
0
 62
256
370
-1
  6
ByLayer
 10
70.0
 20
-30.0000000000000142
 30
0.0
 11
69.9999999999999858
 21
-60.0000000000000284
 31
0.0
  0
LINE
  5
49
100
AcDbEntity
100
AcDbLine
  8
0
 62
256
370
-1
  6
ByLayer
 10
9.9999999999999396
 20
-60.0000000000000071
 30
0.0
 11
9.9999999999999947
 21
-30.0000000000000036
 31
0.0
  0
LINE
  5
4A
100
AcDbEntity
100
AcDbLine
  8
0
 62
256
370
-1
  6
ByLayer
 10
69.9999999999999858
 20
-60.0000000000000284
 30
0.0
 11
9.9999999999999396
 21
-60.0000000000000071
 31
0.0
  0
LINE
  5
4B
100
AcDbEntity
100
AcDbLine
  8
0
 62
256
370
-1
  6
ByLayer
 10
130.0
 20
-30.0000000000000853
 30
0.0
 11
210.0
 21
-30.0000000000000711
 31
0.0
  0
LINE
  5
4C
100
AcDbEntity
100
AcDbLine
  8
0
 62
256
370
-1
  6
ByLayer
 10
210.0
 20
-30.0000000000000711
 30
0.0
 11
209.9999999999999432
 21
-60.0000000000000568
 31
0.0
  0
LINE
  5
4D
100
AcDbEntity
100
AcDbLine
  8
0
 62
256
370
-1
  6
ByLayer
 10
209.9999999999999432
 20
-60.0000000000000568
 30
0.0
 11
129.9999999999999147
 21
-60.0000000000001705
 31
0.0
  0
LINE
  5
4E
100
AcDbEntity
100
AcDbLine
  8
0
 62
256
370
-1
  6
ByLayer
 10
129.9999999999999147
 20
-60.0000000000001705
 30
0.0
 11
130.0
 21
-30.0000000000000853
 31
0.0
  0
MTEXT
  5
4F
100
AcDbEntity
100
AcDbMText
  8
0
 62
256
370
-1
  6
ByLayer
 10
39.9999999999999858
 20
-38.0000000000000213
 30
0.0
 40
3.0
 41
100.0
 71
2
 72
2
  1
Table\~#1\PAssembly\~of\~a\PLow\~Vacuum\~System\P
  7
standard
 50
360.0
 73
0
 44
1.0
  0
LINE
  5
50
100
AcDbEntity
100
AcDbLine
  8
0
 62
256
370
-1
  6
ByLayer
 10
10.0000000000000568
 20
-70.0
 30
0.0
 11
69.9999999999999289
 21
-70.0000000000000853
 31
0.0
  0
LINE
  5
51
100
AcDbEntity
100
AcDbLine
  8
0
 62
256
370
-1
  6
ByLayer
 10
69.9999999999999289
 20
-70.0000000000000853
 30
0.0
 11
70.0000000000000142
 21
-99.9999999999999858
 31
0.0
  0
LINE
  5
52
100
AcDbEntity
100
AcDbLine
  8
0
 62
256
370
-1
  6
ByLayer
 10
70.0000000000000142
 20
-99.9999999999999858
 30
0.0
 11
9.9999999999999645
 21
-100.0
 31
0.0
  0
LINE
  5
53
100
AcDbEntity
100
AcDbLine
  8
0
 62
256
370
-1
  6
ByLayer
 10
9.9999999999999645
 20
-100.0
 30
0.0
 11
10.0000000000000568
 21
-70.0
 31
0.0
  0
MTEXT
  5
54
100
AcDbEntity
100
AcDbMText
  8
0
 62
256
370
-1
  6
ByLayer
 10
40.9999999999999503
 20
-78.0000000000000284
 30
0.0
 40
3.0
 41
100.0
 71
2
 72
2
  1
Table\~#2\PAssembly\~of\~a\PLow\~Vacuum\~System\P
  7
standard
 50
360.0
 73
0
 44
1.0
  0
LINE
  5
55
100
AcDbEntity
100
AcDbLine
  8
0
 62
256
370
-1
  6
ByLayer
 10
10.0000000000000071
 20
-110.0
 30
0.0
 11
69.9999999999998863
 21
-110.0000000000000568
 31
0.0
  0
LINE
  5
56
100
AcDbEntity
100
AcDbLine
  8
0
 62
256
370
-1
  6
ByLayer
 10
69.9999999999998863
 20
-110.0000000000000568
 30
0.0
 11
69.9999999999998437
 21
-140.0000000000000568
 31
0.0
  0
LINE
  5
57
100
AcDbEntity
100
AcDbLine
  8
0
 62
256
370
-1
  6
ByLayer
 10
69.9999999999998437
 20
-140.0000000000000568
 30
0.0
 11
9.9999999999999662
 21
-140.0
 31
0.0
  0
LINE
  5
58
100
AcDbEntity
100
AcDbLine
  8
0
 62
256
370
-1
  6
ByLayer
 10
9.9999999999999662
 20
-140.0
 30
0.0
 11
10.0000000000000071
 21
-110.0
 31
0.0
  0
MTEXT
  5
59
100
AcDbEntity
100
AcDbMText
  8
0
 62
256
370
-1
  6
ByLayer
 10
39.9999999999999787
 20
-120.0000000000000142
 30
0.0
 40
3.0
 41
100.0
 71
2
 72
2
  1
Table\~#3\PSorption\~Pump\P
  7
standard
 50
360.0
 73
0
 44
1.0
  0
LINE
  5
5A
100
AcDbEntity
100
AcDbLine
  8
0
 62
256
370
-1
  6
ByLayer
 10
9.9999999999997637
 20
-150.0
 30
0.0
 11
70.0000000000000284
 21
-150.0
 31
0.0
  0
LINE
  5
5B
100
AcDbEntity
100
AcDbLine
  8
0
 62
256
370
-1
  6
ByLayer
 10
70.0000000000000284
 20
-150.0
 30
0.0
 11
69.9999999999999147
 21
-180.0000000000000284
 31
0.0
  0
LINE
  5
5C
100
AcDbEntity
100
AcDbLine
  8
0
 62
256
370
-1
  6
ByLayer
 10
69.9999999999999147
 20
-180.0000000000000284
 30
0.0
 11
9.9999999999997335
 21
-180.0
 31
0.0
  0
LINE
  5
5D
100
AcDbEntity
100
AcDbLine
  8
0
 62
256
370
-1
  6
ByLayer
 10
9.9999999999997335
 20
-180.0
 30
0.0
 11
9.9999999999997637
 21
-150.0
 31
0.0
  0
MTEXT
  5
5E
100
AcDbEntity
100
AcDbMText
  8
0
 62
256
370
-1
  6
ByLayer
 10
40.0000000000000213
 20
-157.9999999999999716
 30
0.0
 40
3.0
 41
100.0
 71
2
 72
2
  1
Table\~#4\PDisassembled\~\PTurbo\~Pump\P
  7
standard
 50
360.0
 73
0
 44
1.0
  0
LINE
  5
5F
100
AcDbEntity
100
AcDbLine
  8
0
 62
256
370
-1
  6
ByLayer
 10
9.9999999999997566
 20
-190.0
 30
0.0
 11
69.9999999999999432
 21
-190.0000000000000284
 31
0.0
  0
LINE
  5
60
100
AcDbEntity
100
AcDbLine
  8
0
 62
256
370
-1
  6
ByLayer
 10
69.9999999999999432
 20
-190.0000000000000284
 30
0.0
 11
69.9999999999997442
 21
-220.0000000000000853
 31
0.0
  0
LINE
  5
61
100
AcDbEntity
100
AcDbLine
  8
0
 62
256
370
-1
  6
ByLayer
 10
69.9999999999997442
 20
-220.0000000000000853
 30
0.0
 11
10.0000000000003428
 21
-220.0
 31
0.0
  0
LINE
  5
62
100
AcDbEntity
100
AcDbLine
  8
0
 62
256
370
-1
  6
ByLayer
 10
10.0000000000003428
 20
-220.0
 30
0.0
 11
9.9999999999997566
 21
-190.0
 31
0.0
  0
LINE
  5
63
100
AcDbEntity
100
AcDbLine
  8
0
 62
256
370
-1
  6
ByLayer
 10
10.0000000000003428
 20
-220.0
 30
0.0
 11
79.9999999999997016
 21
-220.0000000000001137
 31
0.0
  0
LINE
  5
64
100
AcDbEntity
100
AcDbLine
  8
0
 62
256
370
-1
  6
ByLayer
 10
79.9999999999997016
 20
-220.0000000000001137
 30
0.0
 11
80.0
 21
-250.0
 31
0.0
  0
LINE
  5
65
100
AcDbEntity
100
AcDbLine
  8
0
 62
256
370
-1
  6
ByLayer
 10
80.0
 20
-250.0
 30
0.0
 11
10.0000000000002505
 21
-250.0000000000000284
 31
0.0
  0
LINE
  5
66
100
AcDbEntity
100
AcDbLine
  8
0
 62
256
370
-1
  6
ByLayer
 10
10.0000000000002505
 20
-250.0000000000000284
 30
0.0
 11
10.0000000000003428
 21
-220.0
 31
0.0
  0
LINE
  5
67
100
AcDbEntity
100
AcDbLine
  8
0
 62
256
370
-1
  6
ByLayer
 10
129.9999999999998579
 20
-70.0000000000001705
 30
0.0
 11
209.9999999999999716
 21
-70.0000000000000284
 31
0.0
  0
LINE
  5
68
100
AcDbEntity
100
AcDbLine
  8
0
 62
256
370
-1
  6
ByLayer
 10
209.9999999999999716
 20
-70.0000000000000284
 30
0.0
 11
209.9999999999999432
 21
-100.0000000000000853
 31
0.0
  0
LINE
  5
69
100
AcDbEntity
100
AcDbLine
  8
0
 62
256
370
-1
  6
ByLayer
 10
209.9999999999999432
 20
-100.0000000000000853
 30
0.0
 11
129.9999999999999432
 21
-100.0000000000000853
 31
0.0
  0
LINE
  5
6A
100
AcDbEntity
100
AcDbLine
  8
0
 62
256
370
-1
  6
ByLayer
 10
129.9999999999999432
 20
-100.0000000000000853
 30
0.0
 11
129.9999999999998579
 21
-70.0000000000001705
 31
0.0
  0
MTEXT
  5
6B
100
AcDbEntity
100
AcDbMText
  8
0
 62
256
370
-1
  6
ByLayer
 10
170.0
 20
-79.9999999999999716
 30
0.0
 40
3.0
 41
100.0
 71
2
 72
2
  1
Table\~#9\PLeaks\~and\~Leak\~Testing
  7
standard
 50
360.0
 73
1
 44
1.0
  0
LINE
  5
6C
100
AcDbEntity
100
AcDbLine
  8
0
 62
256
370
-1
  6
ByLayer
 10
130.0
 20
-110.0000000000000284
 30
0.0
 11
210.0000000000000284
 21
-110.0000000000000142
 31
0.0
  0
LINE
  5
6D
100
AcDbEntity
100
AcDbLine
  8
0
 62
256
370
-1
  6
ByLayer
 10
210.0000000000000284
 20
-110.0000000000000142
 30
0.0
 11
209.9999999999998863
 21
-140.0000000000001137
 31
0.0
  0
LINE
  5
6E
100
AcDbEntity
100
AcDbLine
  8
0
 62
256
370
-1
  6
ByLayer
 10
209.9999999999998863
 20
-140.0000000000001137
 30
0.0
 11
129.9999999999999716
 21
-140.0000000000000284
 31
0.0
  0
LINE
  5
6F
100
AcDbEntity
100
AcDbLine
  8
0
 62
256
370
-1
  6
ByLayer
 10
129.9999999999999716
 20
-140.0000000000000284
 30
0.0
 11
130.0
 21
-110.0000000000000284
 31
0.0
  0
MTEXT
  5
70
100
AcDbEntity
100
AcDbMText
  8
0
 62
256
370
-1
  6
ByLayer
 10
170.0
 20
-115.0000000000000284
 30
0.0
 40
3.0
 41
100.0
 71
2
 72
2
  1
Table\~#10\PVariouse\~Museum\~Pieces\~\P\P
  7
standard
 50
360.0
 73
0
 44
1.0
  0
LINE
  5
71
100
AcDbEntity
100
AcDbLine
  8
0
 62
256
370
-1
  6
ByLayer
 10
129.9999999999998579
 20
-150.0000000000001421
 30
0.0
 11
209.9999999999999716
 21
-150.0000000000000284
 31
0.0
  0
LINE
  5
72
100
AcDbEntity
100
AcDbLine
  8
0
 62
256
370
-1
  6
ByLayer
 10
209.9999999999999716
 20
-150.0000000000000284
 30
0.0
 11
209.9999999999996874
 21
-190.0000000000002558
 31
0.0
  0
LINE
  5
73
100
AcDbEntity
100
AcDbLine
  8
0
 62
256
370
-1
  6
ByLayer
 10
130.0
 20
-180.0000000000000284
 30
0.0
 11
129.9999999999998579
 21
-150.0000000000001421
 31
0.0
  0
LINE
  5
74
100
AcDbEntity
100
AcDbLine
  8
0
 62
256
370
-1
  6
ByLayer
 10
149.9999999999999147
 20
-180.0000000000000853
 30
0.0
 11
149.9999999999999147
 21
-210.0000000000000284
 31
0.0
  0
LINE
  5
75
100
AcDbEntity
100
AcDbLine
  8
0
 62
256
370
-1
  6
ByLayer
 10
149.9999999999999147
 20
-210.0000000000000284
 30
0.0
 11
210.0
 21
-210.0000000000000853
 31
0.0
  0
LINE
  5
76
100
AcDbEntity
100
AcDbLine
  8
0
 62
256
370
-1
  6
ByLayer
 10
210.0
 20
-210.0000000000000853
 30
0.0
 11
209.9999999999999147
 21
-180.0000000000000568
 31
0.0
  0
LINE
  5
77
100
AcDbEntity
100
AcDbLine
  8
0
 62
256
370
-1
  6
ByLayer
 10
210.0
 20
-210.0000000000000853
 30
0.0
 11
179.9999999999999716
 21
-210.0
 31
0.0
  0
LINE
  5
78
100
AcDbEntity
100
AcDbLine
  8
0
 62
256
370
-1
  6
ByLayer
 10
179.9999999999999716
 20
-210.0
 30
0.0
 11
180.0000000000000284
 21
-269.9999999999999432
 31
0.0
  0
LINE
  5
79
100
AcDbEntity
100
AcDbLine
  8
0
 62
256
370
-1
  6
ByLayer
 10
180.0000000000000284
 20
-269.9999999999999432
 30
0.0
 11
209.9999999999996305
 21
-270.0000000000002842
 31
0.0
  0
LINE
  5
7A
100
AcDbEntity
100
AcDbLine
  8
0
 62
256
370
-1
  6
ByLayer
 10
209.9999999999996305
 20
-270.0000000000002842
 30
0.0
 11
210.0
 21
-210.0000000000000853
 31
0.0
  0
LINE
  5
7B
100
AcDbEntity
100
AcDbLine
  8
0
 62
256
370
-1
  6
ByLayer
 10
209.9999999999999147
 20
-180.0000000000000568
 30
0.0
 11
130.0
 21
-180.0000000000000284
 31
0.0
  0
MTEXT
  5
7C
100
AcDbEntity
100
AcDbMText
  8
0
 62
256
370
-1
  6
ByLayer
 10
44.9999999999999147
 20
-226.0000000000000568
 30
0.0
 40
3.0
 41
100.0
 71
2
 72
2
  1
Table\~#6\PVarious\~Museum\~Pieces
  7
standard
 50
360.0
 73
1
 44
1.0
  0
MTEXT
  5
7D
100
AcDbEntity
100
AcDbMText
  8
0
 62
256
370
-1
  6
ByLayer
 10
40.9999999999998224
 20
-196.0000000000000284
 30
0.0
 40
3.0
 41
100.0
 71
2
 72
2
  1
Table\~#5\PVarious\~Museum\~Pieces
  7
standard
 50
360.0
 73
1
 44
1.0
  0
MTEXT
  5
7E
100
AcDbEntity
100
AcDbMText
  8
0
 62
256
370
-1
  6
ByLayer
 10
169.9999999999998579
 20
-155.000000000000199
 30
0.0
 40
3.0
 41
100.0
 71
2
 72
2
  1
Table\~#11\PVarious\~Museum\~Pieces
  7
standard
 50
360.0
 73
1
 44
1.0
  0
MTEXT
  5
7F
100
AcDbEntity
100
AcDbMText
  8
0
 62
256
370
-1
  6
ByLayer
 10
170.0
 20
-38.9999999999999503
 30
0.0
 40
3.0
 41
100.0
 71
2
 72
2
  1
Table\~#8\PMechanical\~Guages\Pand\~Pumps
  7
standard
 50
360.0
 73
1
 44
1.0
  0
MTEXT
  5
80
100
AcDbEntity
100
AcDbMText
  8
0
 62
256
370
-1
  6
ByLayer
 10
149.999999999999801
 20
-170.000000000000199
 30
0.0
 40
3.0
 41
100.0
 71
2
 72
2
  1
A
  7
standard
 50
360.0
 73
1
 44
1.0
  0
MTEXT
  5
81
100
AcDbEntity
100
AcDbMText
  8
0
 62
256
370
-1
  6
ByLayer
 10
169.9999999999998579
 20
-170.0000000000002274
 30
0.0
 40
3.0
 41
100.0
 71
2
 72
2
  1
B
  7
standard
 50
360.0
 73
1
 44
1.0
  0
MTEXT
  5
82
100
AcDbEntity
100
AcDbMText
  8
0
 62
256
370
-1
  6
ByLayer
 10
189.9999999999998863
 20
-170.0000000000001137
 30
0.0
 40
3.0
 41
100.0
 71
2
 72
2
  1
C
  7
standard
 50
360.0
 73
1
 44
1.0
  0
MTEXT
  5
83
100
AcDbEntity
100
AcDbMText
  8
0
 62
256
370
-1
  6
ByLayer
 10
179.9999999999999432
 20
-193.0000000000000568
 30
0.0
 40
3.0
 41
100.0
 71
2
 72
2
  1
Table\~#12
  7
standard
 50
360.0
 73
1
 44
1.0
  0
LINE
  5
84
100
AcDbEntity
100
AcDbLine
  8
0
 62
256
370
-1
  6
ByLayer
 10
210.0
 20
-30.0000000000000711
 30
0.0
 11
149.9999999999999716
 21
-30.0000000000001208
 31
0.0
  0
LINE
  5
85
100
AcDbEntity
100
AcDbLine
  8
0
 62
256
370
-1
  6
ByLayer
 10
149.9999999999999716
 20
-30.0000000000001208
 30
0.0
 11
150.0
 21
-0.0000000000000367
 31
0.0
  0
LINE
  5
86
100
AcDbEntity
100
AcDbLine
  8
0
 62
256
370
-1
  6
ByLayer
 10
150.0
 20
-0.0000000000000367
 30
0.0
 11
210.0
 21
-0.0000000000000514
 31
0.0
  0
LINE
  5
87
100
AcDbEntity
100
AcDbLine
  8
0
 62
256
370
-1
  6
ByLayer
 10
210.0
 20
-0.0000000000000514
 30
0.0
 11
210.0
 21
-30.0000000000000711
 31
0.0
  0
MTEXT
  5
88
100
AcDbEntity
100
AcDbMText
  8
0
 62
256
370
-1
  6
ByLayer
 10
180.0
 20
-13.0000000000000195
 30
0.0
 40
3.0
 41
100.0
 71
2
 72
2
  1
Table\~#7
  7
standard
 50
360.0
 73
1
 44
1.0
  0
LINE
  5
89
100
AcDbEntity
100
AcDbLine
  8
0
 62
256
370
-1
  6
ByLayer
 10
210.0
 20
-0.0000000000000514
 30
0.0
 11
180.0
 21
-0.0000000000000441
 31
0.0
  0
LINE
  5
8A
100
AcDbEntity
100
AcDbLine
  8
0
 62
256
370
-1
  6
ByLayer
 10
180.0
 20
-0.0000000000000441
 30
0.0
 11
180.0
 21
59.9999999999999432
 31
0.0
  0
LINE
  5
8B
100
AcDbEntity
100
AcDbLine
  8
0
 62
256
370
-1
  6
ByLayer
 10
180.0
 20
59.9999999999999432
 30
0.0
 11
210.0
 21
59.9999999999999716
 31
0.0
  0
LINE
  5
8C
100
AcDbEntity
100
AcDbLine
  8
0
 62
256
370
-1
  6
ByLayer
 10
210.0
 20
59.9999999999999716
 30
0.0
 11
210.0
 21
-0.0000000000000514
 31
0.0
  0
MTEXT
  5
8D
100
AcDbEntity
100
AcDbMText
  8
0
 62
256
370
-1
  6
ByLayer
 10
193.0
 20
29.999999999999897
 30
0.0
 40
3.0
 41
100.0
 71
2
 72
2
  1
Compton\~Scattering
  7
standard
 50
90.0
 73
1
 44
1.0
  0
LINE
  5
8E
100
AcDbEntity
100
AcDbLine
  8
0
 62
256
370
-1
  6
CONTINUOUS
 10
178.0
 20
1.999999999999768
 30
0.0
 11
152.0
 21
1.9999999999989539
 31
0.0
  0
LINE
  5
8F
100
AcDbEntity
100
AcDbLine
  8
0
 62
256
370
-1
  6
CONTINUOUS
 10
152.0
 20
1.9999999999989539
 30
0.0
 11
152.0
 21
58.0
 31
0.0
  0
LINE
  5
90
100
AcDbEntity
100
AcDbLine
  8
0
 62
256
370
-1
  6
CONTINUOUS
 10
152.0
 20
58.0
 30
0.0
 11
177.9999999999999716
 21
58.0000000000000213
 31
0.0
  0
LINE
  5
91
100
AcDbEntity
100
AcDbLine
  8
0
 62
256
370
-1
  6
CONTINUOUS
 10
177.9999999999999716
 20
58.0000000000000213
 30
0.0
 11
178.0
 21
1.999999999999768
 31
0.0
  0
LINE
  5
92
100
AcDbEntity
100
AcDbLine
  8
0
 62
256
370
-1
  6
CONTINUOUS
 10
178.0
 20
-211.9999999999999716
 30
0.0
 11
151.9999999999999716
 21
-212.0
 31
0.0
  0
LINE
  5
93
100
AcDbEntity
100
AcDbLine
  8
0
 62
256
370
-1
  6
CONTINUOUS
 10
151.9999999999999716
 20
-212.0
 30
0.0
 11
151.9999999999999716
 21
-268.0000000000000568
 31
0.0
  0
LINE
  5
94
100
AcDbEntity
100
AcDbLine
  8
0
 62
256
370
-1
  6
CONTINUOUS
 10
151.9999999999999716
 20
-268.0000000000000568
 30
0.0
 11
177.9999999999999432
 21
-268.0000000000000568
 31
0.0
  0
LINE
  5
95
100
AcDbEntity
100
AcDbLine
  8
0
 62
256
370
-1
  6
CONTINUOUS
 10
177.9999999999999432
 20
-268.0000000000000568
 30
0.0
 11
178.0
 21
-211.9999999999999716
 31
0.0
  0
MTEXT
  5
96
100
AcDbEntity
100
AcDbMText
  8
0
 62
256
370
-1
  6
CONTINUOUS
 10
155.9999999999998295
 20
-240.0000000000001137
 30
0.0
 40
3.0
 41
100.0
 71
2
 72
2
  1
Vacuum\~Manifold\Pand\~the\~Pressure\PDependence\~of\~\PAltimeters
  7
standard
 50
90.0
 73
1
 44
1.0
  0
LEADER
  5
97
  8
0
 62
256
370
-1
  6
ByLayer
100
AcDbEntity
100
AcDbLeader
  3
Standard
 71
1
 72
0
 73
3
 74
0
 75
0
 40
1.0
 41
10.0
 76
2
 10
100.0000000000000142
 20
34.9999999999999432
 10
100.0
 20
-0.0000000000000245
  0
MTEXT
  5
98
100
AcDbEntity
100
AcDbMText
  8
0
 62
256
370
-1
  6
CONTINUOUS
 10
26.9999999999999893
 20
48.9999999999999858
 30
0.0
 40
3.0
 41
100.0
 71
2
 72
2
  1
Science\~Theaters\~ST029
  7
standard
 50
0.0
 73
1
 44
1.0
  0
MTEXT
  5
99
100
AcDbEntity
100
AcDbMText
  8
0
 62
256
370
-1
  6
CONTINUOUS
 10
98.9999999999999858
 20
48.9999999999999858
 30
0.0
 40
3.0
 41
100.0
 71
2
 72
2
  1
South
  7
standard
 50
0.0
 73
1
 44
1.0
  0
MTEXT
  5
9A
100
AcDbEntity
100
AcDbMText
  8
0
 62
256
370
-1
  6
ByLayer
 10
30.0000000000000284
 20
-210.0
 30
0.0
 40
3.0
 41
100.0
 71
2
 72
2
  1
A
  7
standard
 50
360.0
 73
0
 44
1.0
  0
MTEXT
  5
9B
100
AcDbEntity
100
AcDbMText
  8
0
 62
256
370
-1
  6
ByLayer
 10
33.9999999999998295
 20
-240.0
 30
0.0
 40
3.0
 41
100.0
 71
2
 72
2
  1
A
  7
standard
 50
360.0
 73
1
 44
1.0
  0
MTEXT
  5
9C
100
AcDbEntity
100
AcDbMText
  8
0
 62
256
370
-1
  6
ByLayer
 10
153.9999999999998579
 20
-130.0000000000001705
 30
0.0
 40
3.0
 41
100.0
 71
2
 72
2
  1
A
  7
standard
 50
360.0
 73
0
 44
1.0
  0
MTEXT
  5
9D
100
AcDbEntity
100
AcDbMText
  8
0
 62
256
370
-1
  6
ByLayer
 10
186.9999999999998295
 20
-130.0000000000002558
 30
0.0
 40
3.0
 41
100.0
 71
2
 72
2
  1
B
  7
standard
 50
360.0
 73
0
 44
1.0
  0
MTEXT
  5
9E
100
AcDbEntity
100
AcDbMText
  8
0
 62
256
370
-1
  6
ByLayer
 10
57.0
 20
-240.0
 30
0.0
 40
3.0
 41
100.0
 71
2
 72
2
  1
B
  7
standard
 50
0.0
 73
0
 44
1.0
  0
MTEXT
  5
9F
100
AcDbEntity
100
AcDbMText
  8
0
 62
256
370
-1
  6
ByLayer
 10
164.0
 20
30.0
 30
0.0
 40
3.0
 41
100.0
 71
2
 72
2
  1
Pump\~Down\~Curves
  7
standard
 50
90.0
 73
0
 44
1.0
  0
MTEXT
  5
A0
100
AcDbEntity
100
AcDbMText
  8
0
 62
256
370
-1
  6
ByLayer
 10
50.0
 20
-210.0
 30
0.0
 40
3.0
 41
100.0
 71
2
 72
0
  1
B
  7
standard
 50
0.0
 73
1
 44
1.0
  0
ENDSEC
  0
SECTION
  2
OBJECTS
  0
DICTIONARY
  5
C
100
AcDbDictionary
280
0
281
1
  3
ACAD_GROUP
350
D
  3
ACAD_LAYOUT
350
1A
  3
ACAD_MLINESTYLE
350
17
  3
ACAD_PLOTSETTINGS
350
19
  3
ACAD_PLOTSTYLENAME
350
E
  3
AcDbVariableDictionary
350
A1
  0
DICTIONARY
  5
D
100
AcDbDictionary
280
0
281
1
  0
ACDBDICTIONARYWDFLT
  5
E
100
AcDbDictionary
281
1
  3
Normal
350
F
100
AcDbDictionaryWithDefault
340
F
  0
ACDBPLACEHOLDER
  5
F
  0
DICTIONARY
  5
17
100
AcDbDictionary
280
0
281
1
  3
Standard
350
18
  0
MLINESTYLE
  5
18
100
AcDbMlineStyle
  2
STANDARD
 70
0
  3

 62
256
 51
90.0
 52
90.0
 71
2
 49
0.5
 62
256
  6
BYLAYER
 49
-0.5
 62
256
  6
BYLAYER
  0
DICTIONARY
  5
19
100
AcDbDictionary
280
0
281
1
  0
DICTIONARY
  5
1A
100
AcDbDictionary
281
1
  3
Layout1
350
1E
  3
Layout2
350
26
  3
Model
350
22
  0
LAYOUT
  5
1E
100
AcDbPlotSettings
  1

  2
C:\Program Files\AutoCAD 2002\plotters\DWF ePlot (optimized for plotting).pc3
  4

  6

 40
0.0
 41
0.0
 42
0.0
 43
0.0
 44
0.0
 45
0.0
 46
0.0
 47
0.0
 48
0.0
 49
0.0
140
0.0
141
0.0
142
1.0
143
1.0
 70
688
 72
0
 73
0
 74
5
  7

 75
16
147
1.0
148
0.0
149
0.0
100
AcDbLayout
  1
Layout1
 70
1
 71
1
 10
0.0
 20
0.0
 11
420.0
 21
297.0
 12
0.0
 22
0.0
 32
0.0
 14
100000000000000000000.0
 24
100000000000000000000.0
 34
100000000000000000000.0
 15
-100000000000000000000.0
 25
-100000000000000000000.0
 35
-100000000000000000000.0
146
0.0
 13
0.0
 23
0.0
 33
0.0
 16
1.0
 26
0.0
 36
0.0
 17
0.0
 27
1.0
 37
0.0
 76
0
330
1B
  0
LAYOUT
  5
22
100
AcDbPlotSettings
  1

  2
C:\Program Files\AutoCAD 2002\plotters\DWF ePlot (optimized for plotting).pc3
  4

  6

 40
0.0
 41
0.0
 42
0.0
 43
0.0
 44
0.0
 45
0.0
 46
0.0
 47
0.0
 48
0.0
 49
0.0
140
0.0
141
0.0
142
1.0
143
1.0
 70
1712
 72
0
 73
0
 74
0
  7

 75
0
147
1.0
148
0.0
149
0.0
100
AcDbLayout
  1
Model
 70
1
 71
0
 10
0.0
 20
0.0
 11
12.0
 21
9.0
 12
0.0
 22
0.0
 32
0.0
 14
0.0
 24
0.0
 34
0.0
 15
0.0
 25
0.0
 35
0.0
146
0.0
 13
0.0
 23
0.0
 33
0.0
 16
1.0
 26
0.0
 36
0.0
 17
0.0
 27
1.0
 37
0.0
 76
0
330
1F
  0
LAYOUT
  5
26
100
AcDbPlotSettings
  1

  2
C:\Program Files\AutoCAD 2002\plotters\DWF ePlot (optimized for plotting).pc3
  4

  6

 40
0.0
 41
0.0
 42
0.0
 43
0.0
 44
0.0
 45
0.0
 46
0.0
 47
0.0
 48
0.0
 49
0.0
140
0.0
141
0.0
142
1.0
143
1.0
 70
688
 72
0
 73
0
 74
5
  7

 75
16
147
1.0
148
0.0
149
0.0
100
AcDbLayout
  1
Layout2
 70
1
 71
2
 10
0.0
 20
0.0
 11
12.0
 21
9.0
 12
0.0
 22
0.0
 32
0.0
 14
0.0
 24
0.0
 34
0.0
 15
0.0
 25
0.0
 35
0.0
146
0.0
 13
0.0
 23
0.0
 33
0.0
 16
1.0
 26
0.0
 36
0.0
 17
0.0
 27
1.0
 37
0.0
 76
0
330
23
  0
DICTIONARY
  5
A1
100
AcDbDictionary
281
1
  3
DIMASSOC
350
A3
  3
HIDETEXT
350
A2
  0
DICTIONARYVAR
  5
A2
100
DictionaryVariables
280
0
  1
2
  0
DICTIONARYVAR
  5
A3
100
DictionaryVariables
280
0
  1
1
  0
ENDSEC
  0
EOF
